<svg id="Full" xmlns="http://www.w3.org/2000/svg" width="1920" height="1080" viewBox="0 0 1920 1080"><defs><style>.cls-1,.cls-7{fill:#f33;}.cls-1{stroke:#f33;}.cls-1,.cls-2,.cls-3,.cls-4,.cls-7,.cls-8{stroke-width:3px;}.cls-2,.cls-8{fill:#3cf;}.cls-2{stroke:#3cf;}.cls-3{fill:#544f57;}.cls-3,.cls-4,.cls-7,.cls-8{stroke:#35383a;}.cls-4{fill:#f9efef;}.cls-5{fill:#efe2dd;}.cls-6{fill:#49454c;}</style></defs><title>IncludeStudio</title><g id="Texto"><g id="Include"><path class="cls-1" d="M730.09,476.44H676.22q2.47-59,2.48-129.63,0-69.48-2.48-118.22h53.87q-2.48,48-2.47,118.22Q727.62,418.57,730.09,476.44Z"/><path class="cls-1" d="M950.71,476.44H900.08q4.18-48.17,4.19-97.47,0-29.88-8.85-40.54t-26.94-10.66q-21.71,0-41.12,14.85,1,74.24,1,133.82H777.11q3.42-59.58,3.43-93.66a380.92,380.92,0,0,0-9.33-85.85l48.73-5.33,3.24,20.18h3q26.09-22.45,60-22.46,29.31,0,46.93,13.8T950.71,354q0,5.52-.47,14.75t-.48,18.94Q949.76,413.43,950.71,476.44Z"/><path class="cls-1" d="M1137.08,436.46l-3.24,36.36q-17.33,9.14-47,9.14-49.11,0-75.47-27.41T985,388.68q0-40,27.59-69.76t75.57-29.79q23.43,0,41.69,5.33l-6.47,38.83q-17.52-7.23-39.21-7.23-23,0-36.36,16.27t-13.32,40.07q0,25.89,15.8,43.78t44.73,17.9Q1111.95,444.08,1137.08,436.46Z"/><path class="cls-1" d="M1223.5,476.44h-52q2.85-65.29,2.86-141.44,0-74.24-5.9-126.2l55-3.05q-2.85,53.88-2.86,129.25Q1220.64,411.53,1223.5,476.44Z"/><path class="cls-1" d="M1437.27,476.25l-44.55,1.52q-3-10.27-3-16.37h-3Q1361.7,482,1328.39,482q-31.42,0-47.31-16.47t-15.89-65.76q0-5.91.28-16.57t.29-18.65q0-21.13-3.62-67.39l53.11-1.9q-3,36.54-3,69.29,0,46.64,6.94,62.81t27.32,16.19q22.27,0,38.45-10.66,0-100.12-2.28-135.92l51.39-1.71q-1.9,36-1.9,93.27A777.93,777.93,0,0,0,1437.27,476.25Z"/><path class="cls-1" d="M1652.18,476.25l-45.11,1.52a70.56,70.56,0,0,1-1.34-13.9h-2.85Q1581.94,482,1549.39,482q-36.56,0-58.06-26.46t-21.51-62.82q0-41.68,23.41-72.62t65.1-30.93q27,0,40.55,10.09h2.67q0-44.93-4.38-90.42l53.87-1.53q-3,44.35-3,127.54Q1648,419.14,1652.18,476.25ZM1604.4,433q0-60.72-2.85-100.51-13.14-9.13-31.41-9.14-25.12,0-37.31,18.66t-12.19,45.68q0,24,11.81,41.4t32.74,17.42Q1593.17,446.55,1604.4,433Z"/><path class="cls-1" d="M1857.76,366.6q0,9.72-1.14,25.32L1734,394a56,56,0,0,0,18.46,35.79q15.81,14.28,41.51,14.28,28.55,0,60.72-8.57l-3.81,36.93q-26.27,9.53-65.1,9.52-49.11,0-75.29-27.6t-26.17-66.44q0-40.55,24.84-70.34t69-29.78q40.36,0,60,21.88T1857.76,366.6Zm-44.54-1.71q0-43.78-37.31-43.78-35.6,0-42.26,45.3Z"/></g><g id="Studio"><path class="cls-2" d="M846.23,783.38q0,74.43-107,74.43-36.36,0-67.57-8.76L681,806.6q30.84,10.67,58.25,10.66,30.45,0,43.78-5.9t13.33-19.8q0-14.46-12.57-24.36-10.85-8.76-44-22.85-30.08-12.93-44.73-28.17-18.47-19.21-18.47-47.4,0-32.73,24.28-51.2t69.76-18.47q37.3,0,62.63,6.28l-7,42.26a162,162,0,0,0-55.59-9.33q-44.92,0-44.92,24,0,12.75,10.47,20.75,9.13,6.86,39.78,19.22,32.55,13.14,48.73,28.94Q846.23,752.34,846.23,783.38Z"/><path class="cls-2" d="M994.9,815.36l-3.24,33.88Q978.34,855,958.16,855q-30.84,0-46.45-16.75T896.1,773.67q0-28.74.38-65.1-9.71,0-26.26,1.14l1.33-37.5q14.66,1.14,27.22,1.14.18-10.08,1.52-53.11l45.11-5.52q-2.85,37.89-2.85,58.63,16,0,47.78-1.52l-1.52,37.88q-28.95-1.14-47-1.14-.39,25.32-.38,53.1,0,33.9,6.85,45.41t24.18,11.51A86.39,86.39,0,0,0,994.9,815.36Z"/><path class="cls-2" d="M1193.63,850.76l-44.54,1.52q-3-10.28-3-16.37h-3q-24.93,20.57-58.24,20.56-31.41,0-47.3-16.46t-15.9-65.77q0-5.9.29-16.56t.28-18.66q0-21.12-3.61-67.38l53.1-1.91q-3,36.56-3,69.29,0,46.65,7,62.82T1102.83,818q22.28,0,38.45-10.66,0-100.12-2.28-135.91l51.4-1.72q-1.9,36-1.91,93.28A777.76,777.76,0,0,0,1193.63,850.76Z"/><path class="cls-2" d="M1408.54,850.76l-45.11,1.52a70.46,70.46,0,0,1-1.33-13.89h-2.86q-20.94,18.09-53.49,18.08-36.54,0-58.06-26.46t-21.5-62.81q0-41.69,23.41-72.62t65.1-30.94q27,0,40.54,10.09h2.67q0-44.93-4.38-90.42l53.88-1.52q-3.06,44.36-3.05,127.54Q1404.36,793.66,1408.54,850.76Zm-47.77-43.21q0-60.72-2.86-100.51-13.14-9.13-31.41-9.13-25.12,0-37.31,18.65T1277,762.25q0,24,11.8,41.4t32.74,17.42Q1349.54,821.07,1360.77,807.55Z"/><path class="cls-2" d="M1502.77,851h-51.21q2.67-39.41,2.67-90.42,0-50.62-6.47-88.7l54.82-5.52q-2.47,36.93-2.47,94.22Q1500.11,809.46,1502.77,851Zm8.76-238.32a32.56,32.56,0,0,1-8.85,22.65Q1493.82,645,1478,645q-13.33,0-20.85-8.38a29.14,29.14,0,0,1-7.52-20.17,31.92,31.92,0,0,1,8.85-22.47q8.85-9.51,24.85-9.51,13.52,0,20.84,8.27A29.05,29.05,0,0,1,1511.53,612.63Z"/><path class="cls-2" d="M1729.29,756.35q0,48-29.5,75t-69.48,27q-38.07,0-65.29-24.65t-27.22-69.39q0-48.15,29.69-75.38t69.67-27.22q37.89,0,65,24.84T1729.29,756.35Zm-49.68,5.71q0-27.6-12.94-46.36T1633,697q-20.19,0-32.84,17.52t-12.66,43.78q0,27.6,12.94,46.35t33.69,18.75q20.19,0,32.84-17.51T1679.61,762.06Z"/></g></g><g id="logo"><g id="copo"><path class="cls-3" d="M523.59,293.5l-14.71-60.34a6.5,6.5,0,0,0-6.31-5H109.77a6.5,6.5,0,0,0-6.32,5L88.75,293.5v26.33H523.58V293.5Z"/><path class="cls-4" d="M525.28,358.81v-26H87v26L101.49,484l28.58,247.3,12.74,110.07c2.15,18.72,18.89,32.9,38.82,32.9H430.71c19.92,0,36.66-14.18,38.82-32.9l12.73-110.07L510.84,484l14.47-125.17Z"/><path class="cls-5" d="M522.72,361,508.81,481.81l-29,251.75L467.18,842.39c-1.78,14.27-16.55,29.69-36.47,29.69h-46c19.93,0,36.68-12,38.83-30.73l12.75-110.2,28.86-249.69L479,361Z"/><path class="cls-3" d="M516,484l-29.33,247.3H125.33L96,484Z"/><path class="cls-6" d="M513.37,486.17,485.3,729.1,441.51,729l28.06-242.8Z"/><path class="cls-3" d="M546.19,358.81H66.14a3.9,3.9,0,0,1-3.9-3.9v-57.5a3.91,3.91,0,0,1,3.9-3.91H546.2a3.91,3.91,0,0,1,3.9,3.91v57.5A3.9,3.9,0,0,1,546.19,358.81Z"/><path class="cls-6" d="M546.2,356.64H500.47V295.7H546.2a1.77,1.77,0,0,1,1.72,2.07v57.06A1.78,1.78,0,0,1,546.2,356.64Z"/><path class="cls-6" d="M520.78,291.31H459.66v-61h42.72a4.32,4.32,0,0,1,4.19,2.86Z"/></g><path id="Red" class="cls-7" d="M164.48,591.25l133.64-70.43v36.95l-93.73,45.69v.62l93.73,45.45v36.72L164.48,615.82Z"/><path id="Blue" class="cls-8" d="M447.85,619.72,314.22,686.25V650L416,603.85v-.62l-101.8-46.14V520.82l133.63,66.53Z"/></g></svg>