<svg xmlns="http://www.w3.org/2000/svg" xmlns:xlink="http://www.w3.org/1999/xlink" viewBox="0 0 96 38"><defs><style>.cls-1,.cls-7{fill:#f33;}.cls-1{stroke:#f33;}.cls-1,.cls-2{stroke-width:0.55px;}.cls-2,.cls-8{fill:#3cf;}.cls-2{stroke:#3cf;}.cls-3{fill:url(#Gradiente_sem_nome_34);}.cls-4{fill:url(#Gradiente_sem_nome_40);}.cls-5{fill:url(#Gradiente_sem_nome_66);}.cls-6{fill:url(#Gradiente_sem_nome_70);}</style><linearGradient id="Gradiente_sem_nome_34" x1="0.29" y1="20.43" x2="23.45" y2="22.86" gradientUnits="userSpaceOnUse"><stop offset="0.85" stop-color="#f9efef"/><stop offset="0.87" stop-color="#f4e8e6"/><stop offset="0.91" stop-color="#f0e3df"/><stop offset="1" stop-color="#efe2dd"/></linearGradient><linearGradient id="Gradiente_sem_nome_40" x1="1.6" y1="21.18" x2="23.81" y2="23.12" gradientUnits="userSpaceOnUse"><stop offset="0.85" stop-color="#544f57"/><stop offset="0.86" stop-color="#524d55"/><stop offset="0.9" stop-color="#4b474e"/><stop offset="1" stop-color="#49454c"/></linearGradient><linearGradient id="Gradiente_sem_nome_66" x1="1.72" y1="4.64" x2="24.81" y2="4.64" xlink:href="#Gradiente_sem_nome_40"/><linearGradient id="Gradiente_sem_nome_70" x1="0.31" y1="7.37" x2="26.13" y2="7.37" xlink:href="#Gradiente_sem_nome_40"/></defs><g id="_400x400_copy" data-name="400x400 copy"><g id="Texto_cópia_cópia_copy" data-name="Texto cópia cópia copy"><g id="Include"><path class="cls-1" d="M35.71,15.35H32.86Q33,12.23,33,8.48t-.13-6.26h2.85c-.08,1.69-.13,3.78-.13,6.26S35.63,13.31,35.71,15.35Z"/><path class="cls-1" d="M47.41,15.35H44.73c.14-1.7.22-3.42.22-5.16A3.52,3.52,0,0,0,44.48,8a1.76,1.76,0,0,0-1.43-.57,3.5,3.5,0,0,0-2.18.79c0,2.62.05,5,.05,7.09H38.21c.12-2.1.18-3.76.18-5a20.67,20.67,0,0,0-.49-4.55l2.58-.28.17,1.07h.16A4.7,4.7,0,0,1,44,5.43a4,4,0,0,1,2.49.74,3.24,3.24,0,0,1,.93,2.69c0,.2,0,.46,0,.79s0,.66,0,1C47.36,11.56,47.37,13.13,47.41,15.35Z"/><path class="cls-1" d="M57.29,13.21l-.17,1.93a5.4,5.4,0,0,1-2.49.48,5.31,5.31,0,0,1-4-1.45,4.85,4.85,0,0,1-1.39-3.49A5.2,5.2,0,0,1,54.7,5.4a7.9,7.9,0,0,1,2.21.28l-.35,2.06a5.45,5.45,0,0,0-2.07-.38,2.37,2.37,0,0,0-1.93.86,3.26,3.26,0,0,0-.71,2.13,3.4,3.4,0,0,0,.84,2.32,3,3,0,0,0,2.37.94A7.92,7.92,0,0,0,57.29,13.21Z"/><path class="cls-1" d="M61.87,15.35H59.12q.15-3.47.15-7.5A63,63,0,0,0,59,1.16L61.87,1c-.1,1.9-.15,4.19-.15,6.85S61.77,13.06,61.87,15.35Z"/><path class="cls-1" d="M73.21,15.35l-2.37.08a3.69,3.69,0,0,1-.16-.87h-.16a4.74,4.74,0,0,1-3.09,1.09,3.28,3.28,0,0,1-2.5-.88c-.57-.58-.85-1.74-.85-3.48,0-.21,0-.5,0-.88s0-.71,0-1c0-.75-.06-1.94-.19-3.57l2.82-.1c-.11,1.29-.16,2.51-.16,3.67a10,10,0,0,0,.36,3.33,1.43,1.43,0,0,0,1.45.86,3.59,3.59,0,0,0,2-.57c0-3.53,0-5.94-.12-7.2L73,5.75c-.06,1.27-.1,2.92-.1,4.94A39.7,39.7,0,0,0,73.21,15.35Z"/><path class="cls-1" d="M84.6,15.3l-2.39.08a3.48,3.48,0,0,1-.07-.73H82a4.19,4.19,0,0,1-2.84.95,3.75,3.75,0,0,1-3.08-1.4,5.1,5.1,0,0,1-1.14-3.33A6.27,6.27,0,0,1,76.17,7a4.1,4.1,0,0,1,3.46-1.63,3.52,3.52,0,0,1,2.14.53h.15c0-1.59-.08-3.18-.24-4.79l2.86-.08c-.11,1.56-.16,3.82-.16,6.76S84.45,13.28,84.6,15.3ZM82.07,13c0-2.15,0-3.92-.15-5.33a2.88,2.88,0,0,0-1.67-.48,2.2,2.2,0,0,0-2,1,4.32,4.32,0,0,0-.64,2.42,3.84,3.84,0,0,0,.62,2.19,2,2,0,0,0,1.74.93A2.58,2.58,0,0,0,82.07,13Z"/><path class="cls-1" d="M95.5,9.51c0,.35,0,.79-.06,1.35l-6.5.11a2.91,2.91,0,0,0,1,1.89,3.13,3.13,0,0,0,2.2.76,12.66,12.66,0,0,0,3.22-.45l-.2,2a10.4,10.4,0,0,1-3.45.5,5.28,5.28,0,0,1-4-1.46,5,5,0,0,1-1.38-3.53,5.7,5.7,0,0,1,1.31-3.73,4.51,4.51,0,0,1,3.66-1.57A4,4,0,0,1,94.46,6.5,4.35,4.35,0,0,1,95.5,9.51Zm-2.36-.09c0-1.55-.66-2.32-2-2.32s-2,.8-2.24,2.4Z"/></g><g id="Studio"><path class="cls-2" d="M41.87,31.6q0,3.94-5.67,3.95a13.14,13.14,0,0,1-3.58-.46l.49-2.25a9.64,9.64,0,0,0,3.09.56,6.16,6.16,0,0,0,2.32-.31A1.08,1.08,0,0,0,39.23,32a1.6,1.6,0,0,0-.67-1.29,10.72,10.72,0,0,0-2.33-1.21A7.34,7.34,0,0,1,33.86,28a3.46,3.46,0,0,1-1-2.51,3.23,3.23,0,0,1,1.29-2.72,6,6,0,0,1,3.69-1,14.07,14.07,0,0,1,3.32.34l-.37,2.24a8.58,8.58,0,0,0-3-.5c-1.58,0-2.38.43-2.38,1.28a1.34,1.34,0,0,0,.56,1.1,10.66,10.66,0,0,0,2.11,1,8,8,0,0,1,2.58,1.54A3.73,3.73,0,0,1,41.87,31.6Z"/><path class="cls-2" d="M49.75,33.3l-.17,1.8a4.56,4.56,0,0,1-1.78.3,3.21,3.21,0,0,1-2.46-.89c-.55-.59-.82-1.73-.82-3.42,0-1,0-2.17,0-3.45-.34,0-.8,0-1.39.06l.07-2c.52,0,1,.06,1.45.06,0-.36,0-1.29.08-2.82l2.39-.29C47,24,47,25,47,25.77c.56,0,1.41,0,2.53-.08l-.08,2q-1.53-.06-2.49-.06c0,.89,0,1.83,0,2.81a5.37,5.37,0,0,0,.36,2.41,1.36,1.36,0,0,0,1.28.61A4.74,4.74,0,0,0,49.75,33.3Z"/><path class="cls-2" d="M60.29,35.18l-2.36.08a3.17,3.17,0,0,1-.16-.87H57.6a4.68,4.68,0,0,1-3.08,1.09A3.34,3.34,0,0,1,52,34.61c-.56-.58-.84-1.75-.84-3.49,0-.21,0-.5,0-.88s0-.7,0-1c0-.74-.07-1.93-.2-3.57l2.82-.1c-.11,1.29-.16,2.52-.16,3.67A9.69,9.69,0,0,0,54,32.58a1.41,1.41,0,0,0,1.45.86,3.66,3.66,0,0,0,2-.56q0-5.31-.12-7.21l2.73-.09c-.07,1.27-.1,2.92-.1,4.94A41.64,41.64,0,0,0,60.29,35.18Z"/><path class="cls-2" d="M71.68,35.13l-2.39.08a3.48,3.48,0,0,1-.07-.73h-.15a4.19,4.19,0,0,1-2.84,1A3.74,3.74,0,0,1,63.16,34,5.09,5.09,0,0,1,62,30.71a6.16,6.16,0,0,1,1.24-3.85,4.07,4.07,0,0,1,3.45-1.64,3.64,3.64,0,0,1,2.15.53H69c0-1.58-.08-3.18-.23-4.79l2.85-.08q-.16,2.36-.16,6.76T71.68,35.13Zm-2.53-2.24c0-2.15-.05-3.93-.15-5.33a2.81,2.81,0,0,0-1.67-.49,2.19,2.19,0,0,0-2,1,4.27,4.27,0,0,0-.65,2.42,3.82,3.82,0,0,0,.63,2.2,2,2,0,0,0,1.73.92A2.61,2.61,0,0,0,69.15,32.89Z"/><path class="cls-2" d="M76.68,35.18H74c.1-1.39.15-3,.15-4.79a28.09,28.09,0,0,0-.35-4.7l2.91-.3c-.09,1.31-.13,3-.13,5C76.54,32.12,76.58,33.72,76.68,35.18Zm.46-12.63a1.68,1.68,0,0,1-.47,1.2,1.64,1.64,0,0,1-1.3.52,1.42,1.42,0,0,1-1.11-.45,1.56,1.56,0,0,1-.4-1.07,1.72,1.72,0,0,1,.47-1.19,1.74,1.74,0,0,1,1.32-.5,1.35,1.35,0,0,1,1.1.44A1.52,1.52,0,0,1,77.14,22.55Z"/><path class="cls-2" d="M88.69,30.17a5.11,5.11,0,0,1-1.57,4,5.29,5.29,0,0,1-3.68,1.43A5,5,0,0,1,80,34.27a4.7,4.7,0,0,1-1.44-3.68,5.13,5.13,0,0,1,1.57-4,5.29,5.29,0,0,1,3.69-1.44,4.92,4.92,0,0,1,3.45,1.31A4.76,4.76,0,0,1,88.69,30.17Zm-2.64.3A4.18,4.18,0,0,0,85.37,28,2.1,2.1,0,0,0,81.84,28a3.84,3.84,0,0,0-.67,2.32,4.2,4.2,0,0,0,.69,2.46,2.07,2.07,0,0,0,1.78,1,2,2,0,0,0,1.74-.93A3.82,3.82,0,0,0,86.05,30.47Z"/></g></g><g id="Copo_cópia_cópia_copy" data-name="Copo cópia cópia copy"><path id="corpo" class="cls-3" d="M24.9,9.09V7.68H1.63V9.09l.77,6.64L3.91,28.84l.68,5.83a2,2,0,0,0,2.06,1.75H19.88a2,2,0,0,0,2.06-1.75l.67-5.83,1.52-13.11.77-6.64Z"/><path id="Rotulo" class="cls-4" d="M24.46,15.7,22.89,28.84H3.64L2.08,15.7Z"/><path id="Top1" class="cls-5" d="M24.81,5.66,24,2.48a.35.35,0,0,0-.34-.26H2.83a.33.33,0,0,0-.33.26L1.72,5.67v1.4H24.81V5.66Z"/><path id="Top2" class="cls-6" d="M25.92,9.09H.51a.2.2,0,0,1-.2-.2v-3a.2.2,0,0,1,.2-.2H25.92a.2.2,0,0,1,.21.2v3A.2.2,0,0,1,25.92,9.09Z"/><path id="Red" class="cls-7" d="M5.77,21.42l7.05-3.72v2l-4.93,2.4v0l4.93,2.39v1.94l-7-3.71Z"/><path id="Blue" class="cls-8" d="M20.75,22.92l-7,3.51V24.52l5.38-2.43v0L13.7,19.62V17.7l7.05,3.52Z"/></g></g></svg>